<svg width="16" height="18" viewBox="0 0 16 18" fill="none" xmlns="http://www.w3.org/2000/svg">
    <path d="M12.3377 5.68262L12.298 5.92771C11.773 8.77587 9.99121 9.75624 7.70831 9.75624H6.54698C6.41256 9.75653 6.28264 9.80775 6.18057 9.9007C6.07851 9.99365 6.011 10.1222 5.99017 10.2633L5.3936 14.2693L5.22656 15.4018C5.21958 15.4469 5.22199 15.4931 5.23362 15.5371C5.24525 15.5811 5.26582 15.6219 5.29388 15.6565C5.32193 15.6912 5.3568 15.7189 5.39602 15.7377C5.43524 15.7564 5.47785 15.7659 5.52087 15.7653H7.58104C7.69916 15.7669 7.81391 15.7234 7.90441 15.6428C7.99492 15.5621 8.05517 15.4496 8.07422 15.3258V15.2159L8.45602 12.6044V12.4607C8.47333 12.3353 8.53284 12.2208 8.62352 12.1385C8.7142 12.0561 8.8299 12.0115 8.94919 12.0128H9.25941C11.256 12.0128 12.815 11.1676 13.2366 8.63219C13.3591 8.20465 13.3855 7.75253 13.3137 7.31218C13.2419 6.87182 13.0738 6.45552 12.823 6.09674C12.683 5.93218 12.5192 5.79239 12.3377 5.68262Z" fill="#179BD7"/>
    <path d="M11.7866 5.45443L11.54 5.38682L11.2775 5.33611C10.9405 5.28219 10.6001 5.25676 10.2593 5.26005H7.15715C7.03922 5.26074 6.92544 5.30631 6.83642 5.38849C6.7474 5.47066 6.68905 5.58401 6.67193 5.70798L6.01172 10.145V10.2718C6.03254 10.1307 6.10006 10.0021 6.20212 9.90916C6.30418 9.81621 6.4341 9.76499 6.56852 9.7647H7.72986C10.0128 9.7647 11.7945 8.78432 12.3195 5.93617C12.3195 5.85165 12.3195 5.76714 12.3593 5.69108C12.2215 5.61358 12.0778 5.54856 11.9298 5.49669L11.7866 5.45443Z" fill="#222D65"/>
    <path d="M6.6654 5.69912C6.68251 5.57515 6.74087 5.4618 6.82989 5.37962C6.91891 5.29745 7.03269 5.25188 7.15061 5.25119H10.2528C10.5962 5.24745 10.9393 5.27288 11.2789 5.32725L11.5414 5.37796L11.788 5.44557H11.9073C12.0553 5.49762 12.199 5.56264 12.3369 5.63996C12.4375 5.22122 12.4416 4.78287 12.3488 4.36209C12.256 3.94131 12.0691 3.55051 11.8039 3.22283C11.2153 2.5129 10.1494 2.2002 8.78921 2.2002H4.81203C4.67761 2.20048 4.54769 2.2517 4.44563 2.34465C4.34357 2.4376 4.27605 2.56618 4.25523 2.70729L2.61663 13.8548C2.60985 13.9059 2.61339 13.958 2.62701 14.0075C2.64063 14.057 2.66402 14.1029 2.69562 14.1421C2.72723 14.1812 2.76632 14.2128 2.81031 14.2347C2.85429 14.2566 2.90215 14.2682 2.95071 14.2689H5.3927L6.00519 10.1362L6.6654 5.69912Z" fill="#253B80"/>
    </svg>
    