<svg width="48" height="32" viewBox="0 0 48 32" fill="none" xmlns="http://www.w3.org/2000/svg">
    <path fill-rule="evenodd" clip-rule="evenodd"
        d="M13.902 28.1378V29.7777V31.4175H13.0635V31.0193C12.7976 31.3147 12.394 31.5 11.8455 31.5C10.7641 31.5 9.91634 30.7798 9.91634 29.7777C9.91634 28.7763 10.7641 28.0553 11.8455 28.0553C12.394 28.0553 12.7976 28.2407 13.0635 28.536V28.1378H13.902ZM11.9498 28.7281C11.224 28.7281 10.7798 29.2016 10.7798 29.7781C10.7798 30.3546 11.224 30.8282 11.9498 30.8282C12.6433 30.8282 13.1115 30.375 13.1115 29.7781C13.1115 29.1812 12.6433 28.7281 11.9498 28.7281ZM42.2378 29.7781C42.2378 29.2016 42.682 28.7281 43.4078 28.7281C44.1023 28.7281 44.5696 29.1812 44.5696 29.7781C44.5696 30.375 44.1023 30.8282 43.4078 30.8282C42.682 30.8282 42.2378 30.3546 42.2378 29.7781ZM45.361 26.8207V29.7777V31.4175H44.5215V31.0193C44.2556 31.3147 43.852 31.5 43.3035 31.5C42.2221 31.5 41.3744 30.7798 41.3744 29.7777C41.3744 28.7763 42.2221 28.0553 43.3035 28.0553C43.852 28.0553 44.2556 28.2407 44.5215 28.536V26.8207H45.361ZM24.3107 28.6927C24.8509 28.6927 25.1981 28.981 25.2868 29.4883H23.2856C23.3752 29.0147 23.7132 28.6927 24.3107 28.6927ZM22.4063 29.7777C22.4063 28.7551 23.1968 28.0553 24.3271 28.0553C25.4075 28.0553 26.15 28.7551 26.1583 29.7777C26.1583 29.8735 26.15 29.963 26.1417 30.0518H23.278C23.399 30.6424 23.8912 30.8552 24.4314 30.8552C24.8184 30.8552 25.2302 30.7311 25.5534 30.512L25.9644 31.0406C25.4962 31.3767 24.9643 31.5 24.3834 31.5C23.2291 31.5 22.4063 30.8206 22.4063 29.7777ZM34.4521 29.7781C34.4521 29.2016 34.8963 28.7281 35.6222 28.7281C36.3157 28.7281 36.7839 29.1812 36.7839 29.7781C36.7839 30.375 36.3157 30.8282 35.6222 30.8282C34.8963 30.8282 34.4521 30.3546 34.4521 29.7781ZM37.5743 28.1378V29.7777V31.4175H36.7358V31.0193C36.4689 31.3147 36.0663 31.5 35.5177 31.5C34.4363 31.5 33.5886 30.7798 33.5886 29.7777C33.5886 28.7763 34.4363 28.0553 35.5177 28.0553C36.0663 28.0553 36.4689 28.2407 36.7358 28.536V28.1378H37.5743ZM29.7164 29.7777C29.7164 30.7727 30.5309 31.5 31.7739 31.5C32.3548 31.5 32.7417 31.39 33.161 31.1089L32.7583 30.5324C32.4434 30.7248 32.1128 30.8277 31.749 30.8277C31.0795 30.8206 30.5872 30.4091 30.5872 29.7777C30.5872 29.1462 31.0795 28.7347 31.749 28.7276C32.1128 28.7276 32.4434 28.8305 32.7583 29.0229L33.161 28.4464C32.7417 28.1653 32.3548 28.0553 31.7739 28.0553C30.5309 28.0553 29.7164 28.7826 29.7164 29.7777ZM39.5108 28.5364C39.7287 28.2482 40.0437 28.0558 40.5275 28.0558C40.6975 28.0558 40.9394 28.0833 41.125 28.1453L40.8665 28.8176C40.6892 28.7556 40.5119 28.7351 40.3419 28.7351C39.7934 28.7351 39.5191 29.0367 39.5191 29.5794V31.418H38.6797V28.1383H39.5108V28.5364ZM18.0493 28.3985C17.6457 28.1723 17.0898 28.0553 16.4766 28.0553C15.4996 28.0553 14.8707 28.4535 14.8707 29.1054C14.8707 29.6402 15.3389 29.9701 16.2014 30.073L16.5976 30.1209C17.0575 30.1759 17.2745 30.2787 17.2745 30.4641C17.2745 30.7178 16.9679 30.8623 16.3953 30.8623C15.8145 30.8623 15.3952 30.7044 15.1126 30.5191L14.7174 31.0743C15.1773 31.3626 15.7581 31.5 16.387 31.5C17.5007 31.5 18.1462 31.0539 18.1462 30.4295C18.1462 29.8531 17.6383 29.5515 16.7989 29.4486L16.4036 29.3999C16.0407 29.3591 15.7498 29.2978 15.7498 29.0779C15.7498 28.8376 16.0241 28.6938 16.484 28.6938C16.9762 28.6938 17.4527 28.8517 17.6863 28.975L18.0493 28.3985ZM27.8531 28.5364C28.0701 28.2482 28.385 28.0558 28.8689 28.0558C29.0388 28.0558 29.2808 28.0833 29.4664 28.1453L29.2078 28.8176C29.0305 28.7556 28.8532 28.7351 28.6833 28.7351C28.1348 28.7351 27.8605 29.0367 27.8605 29.5794V31.418H27.022V28.1383H27.8531V28.5364ZM21.7126 28.1378H20.3412V27.1427H19.4935V28.1378H18.7113V28.7897H19.4935V30.2858C19.4935 31.0468 19.8407 31.5 20.8325 31.5C21.1964 31.5 21.6156 31.4042 21.8816 31.2463L21.6396 30.6353C21.3894 30.7586 21.1151 30.8206 20.8972 30.8206C20.4779 30.8206 20.3412 30.6007 20.3412 30.2717V28.7897H21.7126V28.1378ZM9.17473 29.3595V31.418H8.32699V29.5928C8.32699 29.0367 8.05272 28.7281 7.48017 28.7281C6.92331 28.7281 6.53638 29.0305 6.53638 29.5999V31.418H5.68863V29.5928C5.68863 29.0367 5.40698 28.7281 4.85012 28.7281C4.27665 28.7281 3.90542 29.0305 3.90542 29.5999V31.418H3.05859L3.05859 28.1383H3.89803V28.5427C4.21293 28.1587 4.61556 28.0558 5.02743 28.0558C5.6166 28.0558 6.03586 28.2757 6.30182 28.6393C6.65735 28.1791 7.16526 28.0487 7.65747 28.0558C8.59387 28.0629 9.17473 28.5844 9.17473 29.3595Z"
        fill="#231F20" />
    <path d="M30.4803 22.5646H17.7715V3.14062H30.4803V22.5646Z" fill="#FF5F00" />
    <path
        d="M18.3382 12.8538C18.3382 8.91356 20.4786 5.40371 23.8117 3.14182C21.3743 1.48781 18.2981 0.500586 14.955 0.500586C7.04058 0.500586 0.625 6.03122 0.625 12.8538C0.625 19.6764 7.04058 25.207 14.955 25.207C18.2981 25.207 21.3743 24.2198 23.8117 22.5658C20.4786 20.3039 18.3382 16.7941 18.3382 12.8538Z"
        fill="#EB001B" />
    <path
        d="M47.3117 13.0188C47.3117 19.7502 40.8963 25.207 32.9822 25.207C29.6392 25.207 26.5632 24.233 24.125 22.6011C27.4589 20.3694 29.5991 16.9064 29.5991 13.0188C29.5991 9.13112 27.4589 5.66813 24.125 3.43644C26.5632 1.80452 29.6392 0.830479 32.9822 0.830479C40.8963 0.830479 47.3117 6.28727 47.3117 13.0188Z"
        fill="#F79E1B" />
</svg>
    