<svg width="24" height="24" viewBox="0 0 24 24" fill="none" xmlns="http://www.w3.org/2000/svg">
    <path
        d="M26.4492 9.5696C27.7628 17.5166 22.4428 25.0696 14.4301 26.4488C13.1166 26.6459 11.7373 26.7115 10.4895 26.5802C6.35174 26.1204 2.60809 23.9531 0.178008 20.6035L23.8221 13.773C24.1505 13.7073 24.0848 13.3789 23.8221 13.3789L13.9047 14.0357C15.2839 12.6565 16.4005 11.0145 16.2691 8.71578C16.0064 5.03782 12.2628 1.35985 5.23522 -1.00456C6.61445 -1.72701 8.05937 -2.25244 9.63564 -2.51515C10.9492 -2.71218 12.3284 -2.77786 13.5763 -2.6465C19.8814 -1.92405 25.3327 2.93612 26.4492 9.5696ZM-2.44911 14.4298C-2.12072 16.4001 -1.39826 18.2391 -0.413092 19.8154C3.33055 18.7645 6.68013 16.7942 7.86233 12.3281C9.17589 7.4679 7.6653 2.34502 4.11869 -0.347776C-0.610127 2.67341 -3.43428 8.38739 -2.44911 14.4298Z"
        fill="#C90019" />
</svg>
    