<svg width="54" height="40" viewBox="0 0 54 40" fill="none" xmlns="http://www.w3.org/2000/svg">
    <path fill-rule="evenodd" clip-rule="evenodd"
        d="M10.4762 39.1996V22.5779H19.3818L20.3373 25.0394L21.3244 22.5779H53.6495V38.0533C53.6495 38.0533 52.8042 39.183 51.8265 39.1996H33.9274L32.8501 36.5795V39.1996H29.32V34.7269C29.32 34.7269 28.8378 35.3512 27.7953 35.3512H26.5937V39.1996H21.2488L20.2947 36.6853L19.326 39.1996H10.4762ZM0.0996094 10.0523L2.1033 0.799805H5.56848L6.7056 5.98268V0.799805H11.0131L11.6901 4.54583L12.3463 0.799805H31.6827V2.68306C31.6827 2.68306 32.6992 0.799805 34.3698 0.799805L40.6437 0.843235L41.7612 5.95828V0.799805H45.366L46.3581 3.73799V0.799805H49.996V17.4216H46.3581L45.4073 14.4739V17.4216H40.1111L39.5785 14.8014H38.1547L37.6308 17.4216H34.039C32.6016 17.4216 31.6827 15.5768 31.6827 15.5768V17.4216H26.2673L25.1925 14.8014V17.4216H5.05514L4.5229 14.8014H3.10364L2.57516 17.4216H0.0996094V10.0523ZM0.110067 15.2894L2.81261 2.84355H4.86148L7.56145 15.2894H5.76319L5.26713 12.7972H2.36822L1.86956 15.2894H0.110067ZM4.69642 10.0955L3.81279 5.74043L2.92659 10.0955H4.69642ZM7.74643 15.2894V2.84355L10.2468 2.86195L11.7011 10.8862L13.1205 2.84355H15.6009V15.2894H14.03V6.11878L12.3648 15.2894H10.9871L9.31732 6.11878V15.2894H7.74643ZM16.6758 15.2894V2.84355H21.8018V5.6275H18.2632V7.75639H21.7192V10.3766H18.2632V12.5873H21.8018V15.2894H16.6758ZM22.7132 15.2894V2.84355H26.209C27.3673 2.84355 28.4051 4.26225 28.4051 6.8813C28.4051 9.12021 27.5301 10.5623 26.6818 10.7041L28.7488 15.2894H26.8291L24.9456 10.8678H24.2841V15.2894H22.7132ZM26.0808 5.62793H24.2851V8.24811H26.1041C26.4189 8.24811 26.8249 7.76486 26.8249 6.93802C26.8249 6.29533 26.5116 5.62793 26.0808 5.62793ZM30.6492 15.2894H29.0453V2.84355H30.6492V15.2894ZM34.454 15.2894H34.1078C32.4326 15.2894 31.4156 12.6754 31.4156 9.11766C31.4156 5.47204 32.4212 2.84355 34.5367 2.84355H36.2729V5.79126H34.4732C33.6144 5.79126 33.0071 7.11866 33.0071 9.14837C33.0071 11.5587 33.7016 12.571 34.702 12.571H35.1154L34.454 15.2894ZM35.1673 15.2894L37.8698 2.84355H39.9187L42.6186 15.2894H40.8204L40.3243 12.7972H37.4254L36.9268 15.2894H35.1673ZM39.7532 10.0955L38.8696 5.74043L37.9834 10.0955H39.7532ZM42.8032 15.2894V2.84355H44.8004L47.3505 10.6632V2.84355H48.9214V15.2894H46.9888L44.3741 7.26511V15.2894H42.8032ZM11.5509 37.0767V24.6309H16.6769V27.4148H13.1383V29.5437H16.5943V32.1639H13.1383V34.3747H16.6769V37.0767H11.5509ZM36.6677 37.0767V24.6309H41.7938V27.4148H38.2551V29.5437H41.6945V32.1639H38.2551V34.3747H41.7938V37.0767H36.6677ZM16.8755 37.0767L19.3714 30.9306L16.8161 24.6309H18.7952L20.317 28.5253L21.844 24.6309H23.7456L21.2239 30.8538L23.7243 37.0767H21.7455L20.2679 33.2437L18.8262 37.0767H16.8755ZM23.9121 37.0722V24.6264H27.382C28.8058 24.6264 29.6376 26.444 29.6376 28.8125C29.6376 31.6717 28.577 33.1419 27.1779 33.1419H25.5243V37.0722H23.9121ZM27.2651 27.4389H25.5237V30.3047H27.2599C27.7187 30.3047 28.0402 29.7024 28.0402 28.8718C28.0402 27.9876 27.7171 27.4389 27.2651 27.4389ZM30.3195 37.0722V24.6264H33.8153C34.9736 24.6264 36.0114 26.0451 36.0114 28.6641C36.0114 30.903 35.1364 32.3451 34.2881 32.4869L36.3551 37.0722H34.4354L32.5518 32.6507H31.8904V37.0722H30.3195ZM33.6871 27.4107H31.8914V30.0309H33.7104C34.0252 30.0309 34.4312 29.5477 34.4312 28.7208C34.4312 28.0781 34.1179 27.4107 33.6871 27.4107ZM42.5224 37.0767V34.3747H45.6663C46.1315 34.3747 46.3329 33.8768 46.3329 33.3307C46.3329 32.8075 46.1321 32.2785 45.6663 32.2785H44.2456C43.0107 32.2785 42.323 30.7883 42.323 28.5509C42.323 26.5553 42.9528 24.6309 44.7878 24.6309H47.8469L47.1855 27.4312H44.5398C44.034 27.4312 43.8784 27.9568 43.8784 28.4588C43.8784 28.9748 44.0707 29.5437 44.4571 29.5437H45.9453C47.3219 29.5437 47.9193 31.0904 47.9193 33.1158C47.9193 35.2933 47.2536 37.0767 45.8704 37.0767H42.5224ZM48.0561 37.0767V34.3747H51.1999C51.6651 34.3747 51.8665 33.8768 51.8665 33.3307C51.8665 32.8075 51.6658 32.2785 51.1999 32.2785H49.7793C48.5444 32.2785 47.8566 30.7883 47.8566 28.5509C47.8566 26.5553 48.4865 24.6309 50.3215 24.6309H53.3806L52.7192 27.4312H50.0735C49.5677 27.4312 49.412 27.9568 49.412 28.4588C49.412 28.9748 49.6044 29.5437 49.9908 29.5437H51.479C52.8556 29.5437 53.4529 31.0904 53.4529 33.1158C53.4529 35.2933 52.7873 37.0767 51.404 37.0767H48.0561Z"
        fill="#006FCF" />
</svg>
    