<svg width="58" height="14" viewBox="0 0 58 14" fill="none" xmlns="http://www.w3.org/2000/svg">
    <path fill-rule="evenodd" clip-rule="evenodd"
        d="M7.62824 0H3.17002C2.8649 0 2.60544 0.20192 2.55778 0.476358L0.754664 10.8897C0.718875 11.0953 0.893618 11.2804 1.12241 11.2804H3.25073C3.55584 11.2804 3.81531 11.0787 3.86296 10.8037L4.34921 7.99496C4.39614 7.72003 4.65615 7.51811 4.96072 7.51811H6.37199C9.30865 7.51811 11.0035 6.22359 11.4463 3.65851C11.6457 2.53614 11.4547 1.65445 10.8777 1.03688C10.2441 0.358765 9.12021 0 7.62824 0ZM8.1425 3.80373C7.89874 5.26092 6.67645 5.26092 5.4947 5.26092H4.82184L5.29385 2.53949C5.32197 2.37499 5.47827 2.25391 5.66086 2.25391H5.96926C6.77432 2.25391 7.53373 2.25391 7.92613 2.67188C8.16021 2.92121 8.23179 3.29178 8.1425 3.80373Z"
        fill="#28356A" />
    <path fill-rule="evenodd" clip-rule="evenodd"
        d="M21.0683 3.67905H18.9334C18.7515 3.67905 18.5943 3.80014 18.5664 3.96463L18.4718 4.50852L18.3226 4.31142C17.8605 3.70034 16.8297 3.49609 15.8012 3.49609C13.4419 3.49609 11.4269 5.12376 11.0345 7.40692C10.8306 8.54576 11.1205 9.63486 11.8299 10.3943C12.4805 11.0925 13.4114 11.3836 14.5188 11.3836C16.4198 11.3836 17.4737 10.2702 17.4737 10.2702L17.3786 10.8106C17.3428 11.0172 17.5175 11.2025 17.7451 11.2025H19.668C19.9738 11.2025 20.232 11.0006 20.2802 10.7256L21.434 4.06975C21.4705 3.86484 21.2963 3.67905 21.0683 3.67905ZM18.0923 7.46398C17.8864 8.57487 16.9184 9.32068 15.6837 9.32068C15.0638 9.32068 14.5685 9.13955 14.2502 8.79642C13.9347 8.45562 13.8149 7.97044 13.9151 7.43005C14.1076 6.32864 15.0918 5.55838 16.3077 5.55838C16.9139 5.55838 17.4067 5.74201 17.7314 6.08796C18.0566 6.43775 18.1856 6.92592 18.0923 7.46398Z"
        fill="#28356A" />
    <path fill-rule="evenodd" clip-rule="evenodd"
        d="M32.275 3.84375H30.1295C29.9248 3.84375 29.7325 3.93639 29.6166 4.09141L26.6577 8.06145L25.4034 4.24626C25.3245 4.00758 25.0828 3.84375 24.8089 3.84375H22.7008C22.4445 3.84375 22.2666 4.07178 22.3481 4.2915L24.7112 10.6082L22.4896 13.465C22.3148 13.6901 22.4909 13.9995 22.7927 13.9995H24.9354C25.1388 13.9995 25.3291 13.9091 25.4445 13.7573L32.5799 4.37516C32.7508 4.15079 32.5754 3.84375 32.275 3.84375Z"
        fill="#28356A" />
    <path fill-rule="evenodd" clip-rule="evenodd"
        d="M39.4269 0H34.9681C34.6637 0 34.4043 0.20192 34.3566 0.476358L32.5535 10.8897C32.5177 11.0953 32.6924 11.2804 32.92 11.2804H35.208C35.4204 11.2804 35.6023 11.1392 35.6355 10.9468L36.1473 7.99496C36.1942 7.72003 36.4544 7.51811 36.7588 7.51811H38.1695C41.1067 7.51811 42.801 6.22359 43.2444 3.65851C43.4445 2.53614 43.2522 1.65445 42.6752 1.03688C42.0422 0.358765 40.919 0 39.4269 0ZM39.9414 3.80373C39.6982 5.26092 38.4759 5.26092 37.2934 5.26092H36.6215L37.094 2.53949C37.122 2.37499 37.2772 2.25391 37.4603 2.25391H37.7687C38.5731 2.25391 39.3332 2.25391 39.7256 2.67188C39.9597 2.92121 40.0307 3.29178 39.9414 3.80373Z"
        fill="#298FC2" />
    <path fill-rule="evenodd" clip-rule="evenodd"
        d="M52.8642 3.67905H50.7306C50.5475 3.67905 50.3917 3.80014 50.3643 3.96463L50.2697 4.50852L50.1198 4.31142C49.6577 3.70034 48.6277 3.49609 47.5989 3.49609C45.2398 3.49609 43.2256 5.12376 42.8332 7.40692C42.6298 8.54576 42.9185 9.63486 43.6277 10.3943C44.2797 11.0925 45.2092 11.3836 46.3168 11.3836C48.2176 11.3836 49.2717 10.2702 49.2717 10.2702L49.1766 10.8106C49.1408 11.0172 49.3153 11.2025 49.5443 11.2025H51.4667C51.771 11.2025 52.0305 11.0006 52.0782 10.7256L53.2325 4.06975C53.2678 3.86484 53.093 3.67905 52.8642 3.67905ZM49.8884 7.46398C49.6837 8.57487 48.7143 9.32068 47.4796 9.32068C46.861 9.32068 46.3643 9.13955 46.0461 8.79642C45.7307 8.45562 45.612 7.97044 45.711 7.43005C45.9047 6.32864 46.8876 5.55838 48.1035 5.55838C48.7097 5.55838 49.2026 5.74201 49.5272 6.08796C49.8537 6.43775 49.9828 6.92592 49.8884 7.46398Z"
        fill="#298FC2" />
    <path fill-rule="evenodd" clip-rule="evenodd"
        d="M55.2036 0.286247L53.3738 10.8902C53.338 11.0958 53.5126 11.2809 53.7401 11.2809H55.5797C55.8856 11.2809 56.1449 11.0792 56.1918 10.8042L57.9962 0.391365C58.0322 0.185786 57.8574 0 57.6299 0H55.5701C55.3882 0.000498978 55.2317 0.121751 55.2036 0.286247Z"
        fill="#298FC2" />
</svg>
    