<svg width="37" height="36" viewBox="0 0 37 36" fill="none" xmlns="http://www.w3.org/2000/svg">
    <path
        d="M36.9258 35.7305H35.4719V34.312H36.9258V35.7305ZM35.4719 35.7305H34.018V34.312H35.4719V35.7305ZM34.018 35.7305H32.5641V34.312H34.018V35.7305ZM32.5641 35.7305H31.1102V34.312H32.5641V35.7305ZM31.1102 35.7305H29.6563V34.312H31.1102V35.7305ZM29.6563 35.7305H28.2024V34.312H29.6563V35.7305ZM28.2024 35.7305H26.7485V34.312H28.2024V35.7305ZM20.9329 35.7305H19.479V34.312H20.9329V35.7305ZM16.5712 35.7305H15.1173V34.312H16.5712V35.7305ZM15.1173 35.7305H13.6634V34.312H15.1173V35.7305ZM13.6634 35.7305H12.2095V34.312H13.6634V35.7305ZM10.7556 35.7305H9.30167V34.312H10.7556V35.7305ZM9.30167 35.7305L7.84776 35.7305V34.312H9.30167V35.7305ZM7.84776 35.7305H6.39387V34.312L7.84776 34.312V35.7305ZM6.39387 35.7305H4.93996V34.312H6.39387V35.7305ZM4.93996 35.7305H3.48606V34.312H4.93996V35.7305ZM3.48606 35.7305H2.03216V34.312H3.48606V35.7305ZM2.03216 35.7305H0.578262V34.312H2.03216V35.7305ZM36.9258 34.312H35.4719V32.8936H36.9258V34.312ZM28.2024 34.312H26.7485V32.8936H28.2024V34.312ZM23.8407 34.312H22.3868V32.8936H23.8407V34.312ZM18.0251 34.312H16.5712V32.8936H18.0251V34.312ZM16.5712 34.312H15.1173V32.8936H16.5712V34.312ZM13.6634 34.312H12.2095V32.8936H13.6634V34.312ZM10.7556 34.312H9.30167V32.8936H10.7556V34.312ZM2.03216 34.312H0.578262V32.8936H2.03216V34.312ZM36.9258 32.8936H35.4719V31.4751H36.9258V32.8936ZM34.018 32.8936H32.5641V31.4751H34.018V32.8936ZM32.5641 32.8936H31.1102V31.4751H32.5641V32.8936ZM31.1102 32.8936H29.6563V31.4751H31.1102V32.8936ZM28.2024 32.8936H26.7485V31.4751H28.2024V32.8936ZM23.8407 32.8936H22.3868V31.4751H23.8407V32.8936ZM22.3868 32.8936H20.9329V31.4751H22.3868V32.8936ZM19.479 32.8936H18.0251V31.4751L19.479 31.4751V32.8936ZM16.5712 32.8936H15.1173V31.4751H16.5712V32.8936ZM15.1173 32.8936H13.6634V31.4751H15.1173V32.8936ZM10.7556 32.8936H9.30167V31.4751H10.7556V32.8936ZM7.84776 32.8936H6.39387V31.4751H7.84776V32.8936ZM6.39387 32.8936L4.93996 32.8936V31.4751H6.39387V32.8936ZM4.93996 32.8936H3.48606V31.4751H4.93996V32.8936ZM2.03216 32.8936H0.578262V31.4751H2.03216V32.8936ZM36.9258 31.4751H35.4719V30.0567H36.9258V31.4751ZM34.018 31.4751H32.5641V30.0567H34.018V31.4751ZM32.5641 31.4751H31.1102V30.0567H32.5641V31.4751ZM31.1102 31.4751H29.6563V30.0567H31.1102V31.4751ZM28.2024 31.4751H26.7485V30.0567H28.2024V31.4751ZM25.2946 31.4751H23.8407V30.0567H25.2946V31.4751ZM23.8407 31.4751H22.3868V30.0567H23.8407V31.4751ZM19.479 31.4751L18.0251 31.4751V30.0567L19.479 30.0567V31.4751ZM16.5712 31.4751H15.1173V30.0567H16.5712V31.4751ZM15.1173 31.4751H13.6634V30.0567H15.1173V31.4751ZM10.7556 31.4751H9.30167V30.0567H10.7556V31.4751ZM7.84776 31.4751H6.39387V30.0567H7.84776V31.4751ZM6.39387 31.4751H4.93996V30.0567H6.39387V31.4751ZM4.93996 31.4751H3.48606V30.0567H4.93996V31.4751ZM2.03216 31.4751H0.578262V30.0567H2.03216V31.4751ZM36.9258 30.0567H35.4719V28.6383H36.9258V30.0567ZM34.018 30.0567H32.5641V28.6383H34.018V30.0567ZM32.5641 30.0567H31.1102V28.6383H32.5641V30.0567ZM31.1102 30.0567H29.6563V28.6383H31.1102V30.0567ZM28.2024 30.0567H26.7485V28.6383H28.2024V30.0567ZM22.3868 30.0567H20.9329V28.6383H22.3868V30.0567ZM20.9329 30.0567H19.479V28.6383H20.9329V30.0567ZM19.479 30.0567L18.0251 30.0567V28.6383L19.479 28.6383V30.0567ZM18.0251 30.0567H16.5712V28.6383H18.0251V30.0567ZM16.5712 30.0567H15.1173V28.6383H16.5712V30.0567ZM10.7556 30.0567H9.30167V28.6383H10.7556V30.0567ZM7.84776 30.0567H6.39387V28.6383H7.84776V30.0567ZM6.39387 30.0567H4.93996V28.6383H6.39387V30.0567ZM4.93996 30.0567H3.48606V28.6383H4.93996V30.0567ZM2.03216 30.0567H0.578262V28.6383H2.03216V30.0567ZM36.9258 28.6383H35.4719V27.2198H36.9258V28.6383ZM28.2024 28.6383H26.7485V27.2198H28.2024V28.6383ZM25.2946 28.6383H23.8407V27.2198H25.2946V28.6383ZM20.9329 28.6383H19.479V27.2198H20.9329V28.6383ZM13.6634 28.6383H12.2095V27.2198H13.6634V28.6383ZM10.7556 28.6383H9.30167V27.2198H10.7556V28.6383ZM2.03216 28.6383H0.578262V27.2198L2.03216 27.2198V28.6383ZM36.9258 27.2198H35.4719V25.8014H36.9258V27.2198ZM35.4719 27.2198H34.018V25.8014H35.4719V27.2198ZM34.018 27.2198H32.5641V25.8014H34.018V27.2198ZM32.5641 27.2198H31.1102V25.8014H32.5641V27.2198ZM31.1102 27.2198H29.6563V25.8014H31.1102V27.2198ZM29.6563 27.2198H28.2024V25.8014H29.6563V27.2198ZM28.2024 27.2198H26.7485V25.8014H28.2024V27.2198ZM25.2946 27.2198H23.8407V25.8014H25.2946V27.2198ZM22.3868 27.2198H20.9329V25.8014H22.3868V27.2198ZM19.479 27.2198H18.0251V25.8014H19.479V27.2198ZM16.5712 27.2198L15.1173 27.2198V25.8014L16.5712 25.8014V27.2198ZM13.6634 27.2198H12.2095V25.8014H13.6634V27.2198ZM10.7556 27.2198H9.30167V25.8014H10.7556V27.2198ZM9.30167 27.2198H7.84776V25.8014H9.30167V27.2198ZM7.84776 27.2198H6.39387V25.8014H7.84776V27.2198ZM6.39387 27.2198H4.93996V25.8014H6.39387V27.2198ZM4.93996 27.2198H3.48606V25.8014H4.93996V27.2198ZM3.48606 27.2198H2.03216V25.8014H3.48606V27.2198ZM2.03216 27.2198L0.578262 27.2198V25.8014L2.03216 25.8014V27.2198ZM25.2946 25.8014H23.8407V24.383H25.2946V25.8014ZM23.8407 25.8014H22.3868V24.383H23.8407V25.8014ZM22.3868 25.8014H20.9329V24.383H22.3868V25.8014ZM16.5712 25.8014L15.1173 25.8014V24.383L16.5712 24.383V25.8014ZM15.1173 25.8014H13.6634V24.383H15.1173V25.8014ZM13.6634 25.8014H12.2095V24.383H13.6634V25.8014ZM35.4719 24.383H34.018V22.9645H35.4719V24.383ZM34.018 24.383H32.5641V22.9645H34.018V24.383ZM28.2024 24.383H26.7485V22.9645H28.2024V24.383ZM18.0251 24.383H16.5712V22.9645H18.0251V24.383ZM16.5712 24.383L15.1173 24.383V22.9645L16.5712 22.9645V24.383ZM13.6634 24.383H12.2095V22.9645H13.6634V24.383ZM10.7556 24.383H9.30167V22.9645H10.7556V24.383ZM9.30167 24.383H7.84776V22.9645H9.30167V24.383ZM6.39387 24.383H4.93996V22.9645H6.39387V24.383ZM35.4719 22.9645H34.018V21.5461H35.4719V22.9645ZM34.018 22.9645H32.5641V21.5461H34.018V22.9645ZM31.1102 22.9645H29.6563V21.5461H31.1102V22.9645ZM26.7485 22.9645H25.2946V21.5461H26.7485V22.9645ZM22.3868 22.9645H20.9329V21.5461H22.3868V22.9645ZM20.9329 22.9645H19.479V21.5461H20.9329V22.9645ZM19.479 22.9645H18.0251V21.5461H19.479V22.9645ZM18.0251 22.9645H16.5712V21.5461H18.0251V22.9645ZM16.5712 22.9645L15.1173 22.9645V21.5461L16.5712 21.5461V22.9645ZM15.1173 22.9645H13.6634V21.5461H15.1173V22.9645ZM13.6634 22.9645H12.2095V21.5461H13.6634V22.9645ZM10.7556 22.9645H9.30167V21.5461H10.7556V22.9645ZM9.30167 22.9645H7.84776V21.5461H9.30167V22.9645ZM6.39387 22.9645H4.93996V21.5461H6.39387V22.9645ZM3.48606 22.9645H2.03216V21.5461H3.48606V22.9645ZM2.03216 22.9645L0.578262 22.9645V21.5461L2.03216 21.5461V22.9645ZM28.2024 21.5461H26.7485V20.1276H28.2024V21.5461ZM20.9329 21.5461H19.479L19.479 20.1276H20.9329V21.5461ZM15.1173 21.5461H13.6634L13.6634 20.1276H15.1173L15.1173 21.5461ZM12.2095 21.5461H10.7556L10.7556 20.1276H12.2095L12.2095 21.5461ZM9.30167 21.5461H7.84776L7.84776 20.1276H9.30167L9.30167 21.5461ZM6.39387 21.5461H4.93996L4.93996 20.1276H6.39387L6.39387 21.5461ZM4.93996 21.5461H3.48606V20.1276H4.93996L4.93996 21.5461ZM2.03216 21.5461L0.578262 21.5461V20.1276L2.03216 20.1276V21.5461ZM36.9258 20.1276H35.4719V18.7092H36.9258V20.1276ZM35.4719 20.1276H34.018V18.7092H35.4719V20.1276ZM31.1102 20.1276H29.6563V18.7092H31.1102V20.1276ZM26.7485 20.1276H25.2946V18.7092H26.7485V20.1276ZM23.8407 20.1276H22.3868V18.7092L23.8407 18.7092V20.1276ZM22.3868 20.1276H20.9329V18.7092H22.3868V20.1276ZM18.0251 20.1276H16.5712V18.7092H18.0251V20.1276ZM15.1173 20.1276H13.6634V18.7092H15.1173V20.1276ZM12.2095 20.1276H10.7556V18.7092H12.2095V20.1276ZM9.30167 20.1276H7.84776V18.7092H9.30167V20.1276ZM6.39387 20.1276H4.93996V18.7092H6.39387V20.1276ZM36.9258 18.7092H35.4719V17.2908H36.9258V18.7092ZM35.4719 18.7092H34.018V17.2908H35.4719V18.7092ZM32.5641 18.7092H31.1102L31.1102 17.2908H32.5641V18.7092ZM28.2024 18.7092H26.7485V17.2908H28.2024V18.7092ZM26.7485 18.7092H25.2946V17.2908H26.7485V18.7092ZM25.2946 18.7092H23.8407V17.2908H25.2946V18.7092ZM23.8407 18.7092L22.3868 18.7092V17.2908L23.8407 17.2908V18.7092ZM22.3868 18.7092H20.9329V17.2908H22.3868V18.7092ZM18.0251 18.7092H16.5712V17.2908H18.0251V18.7092ZM15.1173 18.7092H13.6634V17.2908H15.1173V18.7092ZM13.6634 18.7092H12.2095V17.2908H13.6634V18.7092ZM10.7556 18.7092H9.30167V17.2908H10.7556V18.7092ZM9.30167 18.7092H7.84776V17.2908H9.30167V18.7092ZM2.03216 18.7092H0.578262V17.2908H2.03216V18.7092ZM34.018 17.2908H32.5641V15.8723H34.018V17.2908ZM32.5641 17.2908H31.1102V15.8723H32.5641V17.2908ZM31.1102 17.2908H29.6563V15.8723H31.1102V17.2908ZM22.3868 17.2908H20.9329V15.8723H22.3868V17.2908ZM20.9329 17.2908H19.479V15.8723H20.9329V17.2908ZM19.479 17.2908H18.0251V15.8723H19.479V17.2908ZM15.1173 17.2908H13.6634V15.8723H15.1173V17.2908ZM13.6634 17.2908H12.2095V15.8723H13.6634V17.2908ZM10.7556 17.2908H9.30167V15.8723H10.7556V17.2908ZM9.30167 17.2908H7.84776V15.8723H9.30167V17.2908ZM3.48606 17.2908H2.03216V15.8723H3.48606V17.2908ZM2.03216 17.2908H0.578262V15.8723H2.03216V17.2908ZM36.9258 15.8723H35.4719V14.4539H36.9258V15.8723ZM35.4719 15.8723H34.018V14.4539H35.4719V15.8723ZM32.5641 15.8723H31.1102V14.4539H32.5641V15.8723ZM29.6563 15.8723H28.2024V14.4539H29.6563V15.8723ZM28.2024 15.8723H26.7485V14.4539H28.2024V15.8723ZM25.2946 15.8723H23.8407V14.4539H25.2946V15.8723ZM23.8407 15.8723L22.3868 15.8723V14.4539L23.8407 14.4539V15.8723ZM22.3868 15.8723H20.9329V14.4539H22.3868V15.8723ZM19.479 15.8723H18.0251V14.4539H19.479V15.8723ZM15.1173 15.8723H13.6634V14.4539H15.1173V15.8723ZM13.6634 15.8723H12.2095V14.4539H13.6634V15.8723ZM10.7556 15.8723H9.30167V14.4539H10.7556V15.8723ZM6.39387 15.8723H4.93996V14.4539H6.39387V15.8723ZM4.93996 15.8723H3.48606V14.4539H4.93996V15.8723ZM2.03216 15.8723H0.578262V14.4539H2.03216V15.8723ZM34.018 14.4539H32.5641V13.0354H34.018V14.4539ZM32.5641 14.4539H31.1102V13.0354H32.5641V14.4539ZM31.1102 14.4539H29.6563V13.0354H31.1102V14.4539ZM26.7485 14.4539H25.2946L25.2946 13.0354H26.7485L26.7485 14.4539ZM22.3868 14.4539H20.9329L20.9329 13.0354H22.3868L22.3868 14.4539ZM16.5712 14.4539H15.1173V13.0354H16.5712V14.4539ZM15.1173 14.4539H13.6634V13.0354H15.1173V14.4539ZM13.6634 14.4539H12.2095V13.0354H13.6634V14.4539ZM12.2095 14.4539H10.7556V13.0354H12.2095V14.4539ZM10.7556 14.4539H9.30167V13.0354H10.7556V14.4539ZM9.30167 14.4539H7.84776V13.0354H9.30167V14.4539ZM7.84776 14.4539H6.39387V13.0354H7.84776V14.4539ZM6.39387 14.4539H4.93996V13.0354H6.39387V14.4539ZM36.9258 13.0354H35.4719V11.617H36.9258V13.0354ZM35.4719 13.0354H34.018V11.617H35.4719V13.0354ZM34.018 13.0354H32.5641V11.617H34.018V13.0354ZM31.1102 13.0354H29.6563V11.617H31.1102V13.0354ZM28.2024 13.0354H26.7485V11.617H28.2024V13.0354ZM25.2946 13.0354H23.8407V11.617H25.2946V13.0354ZM20.9329 13.0354H19.479V11.617H20.9329V13.0354ZM13.6634 13.0354H12.2095V11.617H13.6634V13.0354ZM12.2095 13.0354H10.7556V11.617H12.2095V13.0354ZM10.7556 13.0354H9.30167V11.617H10.7556V13.0354ZM9.30167 13.0354H7.84776V11.617H9.30167V13.0354ZM7.84776 13.0354H6.39387V11.617H7.84776V13.0354ZM3.48606 13.0354H2.03216V11.617H3.48606V13.0354ZM25.2946 11.617H23.8407V10.1986H25.2946V11.617ZM23.8407 11.617L22.3868 11.617V10.1986L23.8407 10.1986V11.617ZM22.3868 11.617H20.9329V10.1986H22.3868V11.617ZM20.9329 11.617H19.479V10.1986H20.9329V11.617ZM18.0251 11.617H16.5712V10.1986H18.0251V11.617ZM16.5712 11.617H15.1173V10.1986H16.5712V11.617ZM13.6634 11.617H12.2095V10.1986H13.6634V11.617ZM7.84776 11.617H6.39387V10.1986H7.84776V11.617ZM2.03216 11.617H0.578262V10.1986H2.03216V11.617ZM36.9258 10.1986H35.4719V8.78011H36.9258V10.1986ZM35.4719 10.1986H34.018V8.78011H35.4719V10.1986ZM34.018 10.1986H32.5641V8.78011H34.018V10.1986ZM32.5641 10.1986H31.1102V8.78011H32.5641V10.1986ZM31.1102 10.1986H29.6563V8.78011H31.1102V10.1986ZM29.6563 10.1986H28.2024V8.78011H29.6563V10.1986ZM28.2024 10.1986H26.7485V8.78011H28.2024V10.1986ZM22.3868 10.1986H20.9329V8.78011H22.3868V10.1986ZM20.9329 10.1986H19.479V8.78011H20.9329V10.1986ZM16.5712 10.1986H15.1173V8.78011H16.5712V10.1986ZM13.6634 10.1986H12.2095V8.78011H13.6634V10.1986ZM10.7556 10.1986H9.30167V8.78011H10.7556V10.1986ZM7.84776 10.1986H6.39387V8.78011H7.84776V10.1986ZM2.03216 10.1986H0.578262V8.78011H2.03216V10.1986ZM36.9258 8.78011H35.4719V7.36167H36.9258V8.78011ZM28.2024 8.78011H26.7485V7.36167H28.2024V8.78011ZM23.8407 8.78011L22.3868 8.78011V7.36167L23.8407 7.36167V8.78011ZM22.3868 8.78011H20.9329V7.36167H22.3868V8.78011ZM19.479 8.78011H18.0251V7.36167H19.479V8.78011ZM18.0251 8.78011H16.5712V7.36167H18.0251V8.78011ZM13.6634 8.78011H12.2095V7.36167H13.6634V8.78011ZM7.84776 8.78011H6.39387V7.36167H7.84776V8.78011ZM3.48606 8.78011H2.03216V7.36167H3.48606V8.78011ZM36.9258 7.36167H35.4719V5.94323H36.9258L36.9258 7.36167ZM34.018 7.36167H32.5641V5.94323H34.018V7.36167ZM32.5641 7.36167H31.1102V5.94323H32.5641V7.36167ZM31.1102 7.36167H29.6563V5.94323H31.1102V7.36167ZM28.2024 7.36167H26.7485V5.94323H28.2024V7.36167ZM23.8407 7.36167L22.3868 7.36167V5.94323L23.8407 5.94323V7.36167ZM22.3868 7.36167H20.9329V5.94323H22.3868V7.36167ZM16.5712 7.36167H15.1173V5.94323H16.5712V7.36167ZM15.1173 7.36167H13.6634V5.94323H15.1173V7.36167ZM13.6634 7.36167H12.2095V5.94323H13.6634V7.36167ZM12.2095 7.36167H10.7556V5.94323H12.2095V7.36167ZM10.7556 7.36167H9.30167V5.94323H10.7556V7.36167ZM9.30167 7.36167H7.84776V5.94323H9.30167V7.36167ZM7.84776 7.36167H6.39387V5.94323H7.84776V7.36167ZM3.48606 7.36167H2.03216L2.03216 5.94323H3.48606L3.48606 7.36167ZM2.03216 7.36167H0.578262L0.578262 5.94323H2.03216L2.03216 7.36167ZM36.9258 5.94323H35.4719L35.4719 4.52479H36.9258V5.94323ZM34.018 5.94323H32.5641V4.52479H34.018L34.018 5.94323ZM32.5641 5.94323H31.1102V4.52479H32.5641V5.94323ZM31.1102 5.94323H29.6563V4.52479H31.1102V5.94323ZM28.2024 5.94323H26.7485V4.52479H28.2024V5.94323ZM23.8407 5.94323L22.3868 5.94323V4.52479L23.8407 4.52479V5.94323ZM22.3868 5.94323H20.9329V4.52479H22.3868V5.94323ZM20.9329 5.94323H19.479V4.52479H20.9329V5.94323ZM19.479 5.94323H18.0251V4.52479H19.479V5.94323ZM15.1173 5.94323H13.6634V4.52479H15.1173V5.94323ZM12.2095 5.94323H10.7556V4.52479H12.2095V5.94323ZM7.84776 5.94323H6.39387V4.52479H7.84776V5.94323ZM4.93996 5.94323H3.48606V4.52479H4.93996V5.94323ZM3.48606 5.94323H2.03216V4.52479H3.48606V5.94323ZM36.9258 4.52479H35.4719V3.10635H36.9258V4.52479ZM34.018 4.52479H32.5641V3.10635H34.018V4.52479ZM32.5641 4.52479H31.1102V3.10635H32.5641V4.52479ZM31.1102 4.52479H29.6563V3.10635H31.1102V4.52479ZM28.2024 4.52479H26.7485V3.10635H28.2024V4.52479ZM25.2946 4.52479H23.8407V3.10635H25.2946V4.52479ZM18.0251 4.52479H16.5712V3.10635H18.0251V4.52479ZM16.5712 4.52479H15.1173V3.10635H16.5712V4.52479ZM15.1173 4.52479H13.6634V3.10635H15.1173V4.52479ZM13.6634 4.52479H12.2095V3.10635H13.6634V4.52479ZM12.2095 4.52479H10.7556V3.10635H12.2095V4.52479ZM9.30167 4.52479H7.84776V3.10635L9.30167 3.10635V4.52479ZM7.84776 4.52479H6.39387V3.10635H7.84776V4.52479ZM6.39387 4.52479H4.93996V3.10635H6.39387V4.52479ZM3.48606 4.52479H2.03216V3.10635H3.48606V4.52479ZM2.03216 4.52479H0.578262V3.10635H2.03216V4.52479ZM36.9258 3.10635H35.4719V1.68792H36.9258V3.10635ZM28.2024 3.10635H26.7485V1.68792H28.2024V3.10635ZM25.2946 3.10635H23.8407V1.68792H25.2946V3.10635ZM23.8407 3.10635H22.3868V1.68792H23.8407V3.10635ZM22.3868 3.10635H20.9329V1.68792H22.3868V3.10635ZM18.0251 3.10635H16.5712V1.68792H18.0251V3.10635ZM13.6634 3.10635H12.2095V1.68792H13.6634V3.10635ZM12.2095 3.10635H10.7556V1.68792H12.2095V3.10635ZM10.7556 3.10635H9.30167V1.68792H10.7556V3.10635ZM9.30167 3.10635L7.84776 3.10635V1.68792L9.30167 1.68792V3.10635ZM7.84776 3.10635H6.39387V1.68792H7.84776V3.10635ZM36.9258 1.68792H35.4719V0.269474H36.9258V1.68792ZM35.4719 1.68792H34.018V0.269474H35.4719V1.68792ZM34.018 1.68792H32.5641V0.269474H34.018V1.68792ZM32.5641 1.68792H31.1102V0.269474H32.5641V1.68792ZM31.1102 1.68792H29.6563V0.269474H31.1102V1.68792ZM29.6563 1.68792H28.2024V0.269474H29.6563V1.68792ZM28.2024 1.68792H26.7485V0.269474H28.2024V1.68792ZM22.3868 1.68792H20.9329V0.269474H22.3868V1.68792ZM19.479 1.68792H18.0251V0.269474H19.479V1.68792ZM13.6634 1.68792H12.2095V0.269474H13.6634V1.68792ZM10.7556 1.68792H9.30167V0.269474H10.7556V1.68792ZM6.39387 1.68792H4.93996V0.269474H6.39387V1.68792ZM2.03216 1.68792H0.578262V0.269474H2.03216V1.68792Z"
        fill="black" />
</svg>
    