<svg width="24" height="20" viewBox="0 0 24 20" fill="none" xmlns="http://www.w3.org/2000/svg">
    <path fill-rule="evenodd" clip-rule="evenodd"
        d="M2.03739 8.29283C8.23887 5.59095 12.3742 3.8097 14.4433 2.94909C20.351 0.491871 21.5786 0.0650262 22.3787 0.0509315C22.5547 0.0478316 22.9481 0.0914439 23.203 0.298257C23.4182 0.472886 23.4774 0.708786 23.5058 0.874353C23.5341 1.03992 23.5694 1.41709 23.5413 1.7118C23.2212 5.07554 21.8359 13.2385 21.1312 17.0059C20.833 18.6001 20.2458 19.1346 19.6774 19.1869C18.442 19.3006 17.504 18.3705 16.3075 17.5862C14.4352 16.3588 13.3774 15.5948 11.5601 14.3972C9.45976 13.0131 10.8213 12.2524 12.0183 11.0092C12.3315 10.6839 17.7745 5.73304 17.8799 5.28392C17.893 5.22775 17.9053 5.01838 17.7809 4.90782C17.6565 4.79726 17.4729 4.83507 17.3404 4.86514C17.1527 4.90776 14.1616 6.88471 8.3674 10.796C7.51841 11.379 6.74943 11.663 6.06044 11.6481C5.30089 11.6317 3.83981 11.2187 2.75365 10.8656C1.42144 10.4325 0.362616 10.2036 0.454816 9.46813C0.502839 9.08506 1.03036 8.69329 2.03739 8.29283Z"
        fill="#07689F" />
</svg>    