<svg width="24" height="20" viewBox="0 0 24 20" fill="none" xmlns="http://www.w3.org/2000/svg">
    <path
        d="M21.0566 5.18114C21.0659 5.39235 21.0659 5.59395 21.0659 5.80515C21.0752 12.2084 16.3707 19.6004 7.76744 19.6004C5.22999 19.6004 2.73885 18.842 0.599609 17.4212C0.97004 17.4692 1.34047 17.4884 1.7109 17.4884C3.81309 17.4884 5.85972 16.7588 7.5174 15.4052C5.51707 15.3668 3.75753 14.0132 3.14632 12.0356C3.85014 12.1796 4.57248 12.1508 5.25777 11.9492C3.08149 11.5076 1.51642 9.52036 1.50716 7.20675C1.50716 7.18755 1.50716 7.16835 1.50716 7.14915C2.15542 7.52355 2.88702 7.73475 3.62788 7.75395C1.58125 6.33315 0.942258 3.50114 2.1832 1.28353C4.56322 4.31714 8.06378 6.15075 11.8237 6.35235C11.444 4.67234 11.9626 2.90594 13.1757 1.71553C15.0557 -0.118073 18.0191 -0.0220723 19.7972 1.92673C20.8436 1.71553 21.8531 1.31233 22.7699 0.74593C22.418 1.86913 21.6864 2.81954 20.714 3.42434C21.6401 3.30914 22.5476 3.04994 23.3996 2.66594C22.7699 3.64514 21.9734 4.48994 21.0566 5.18114Z"
        fill="#07689F" />
</svg>
    